<svg width="34" height="38" viewBox="0 0 34 38" fill="none" xmlns="http://www.w3.org/2000/svg">
<path d="M24.5 2V9.55556M9.5 2V9.55556M2 17.1111H32M2 9.55556C2 8.55363 2.39509 7.59273 3.09835 6.88426C3.80161 6.17579 4.75544 5.77778 5.75 5.77778H28.25C29.2446 5.77778 30.1984 6.17579 30.9017 6.88426C31.6049 7.59273 32 8.55363 32 9.55556V32.2222C32 33.2242 31.6049 34.185 30.9017 34.8935C30.1984 35.602 29.2446 36 28.25 36H5.75C4.75544 36 3.80161 35.602 3.09835 34.8935C2.39509 34.185 2 33.2242 2 32.2222V9.55556Z" stroke="#2D3A3D" stroke-width="3" stroke-linecap="round" stroke-linejoin="round"/>
</svg>
